Coordinates
version=1
nRows=16
nColumns=40
inDegrees=yes

Units are S.I. units (second, meters, Newtons, ...)
Angles are in degrees.

endheader
time	pelvis_tilt	pelvis_list	pelvis_rotation	pelvis_tx	pelvis_ty	pelvis_tz	hip_flexion_r	hip_adduction_r	hip_rotation_r	knee_angle_r	knee_angle_r_beta	ankle_angle_r	subtalar_angle_r	mtp_angle_r	hip_flexion_l	hip_adduction_l	hip_rotation_l	knee_angle_l	knee_angle_l_beta	ankle_angle_l	subtalar_angle_l	mtp_angle_l	lumbar_extension	lumbar_bending	lumbar_rotation	arm_flex_r	arm_add_r	arm_rot_r	elbow_flex_r	pro_sup_r	wrist_flex_r	wrist_dev_r	arm_flex_l	arm_add_l	arm_rot_l	elbow_flex_l	pro_sup_l	wrist_flex_l	wrist_dev_l
     17.94000000	     -4.01827220	     -4.42622527	     -0.21902280	      1.02622923	      0.91959840	      0.53583101	     16.96731464	      4.57019645	     -8.05644335	     26.83515118	     26.83515118	     14.80078593	     -6.82770285	     -0.98958645	     23.85549126	    -12.18362477	      1.72314415	     65.85773486	     65.85773486	      9.87697886	    -18.93211333	     14.58608357	     -9.86585253	      6.94848858	      0.66273920	      9.95935458	    -17.16827218	    -15.50652894	     38.91453083	     45.98106001	      0.00000000	      0.00000000	     17.72046112	     -9.32309688	     -6.61313270	     41.45600455	     46.23452946	      0.00000000	      0.00000000
     17.95921429	     -3.77477254	     -4.41949291	      0.38854328	      1.02495374	      0.91757837	      0.53745861	     17.08260240	      4.64350303	     -8.04982143	     28.13874442	     28.13874442	     15.46889428	     -8.04626810	     -1.15221122	     25.41382542	    -12.49550042	      1.87904678	     66.88563590	     66.88563590	     10.69342389	    -19.17899949	     15.12497594	    -10.03392718	      6.74478109	      0.41951073	     12.00836754	    -16.90618015	    -15.54474956	     40.46728760	     45.93445063	      0.00000000	      0.00000000	     15.40265797	     -9.10943893	     -6.30523633	     39.53355036	     46.16959936	      0.00000000	      0.00000000
     17.97842857	     -3.44960815	     -4.43122512	      1.01940217	      1.02363989	      0.91570610	      0.53899802	     17.03133696	      4.77185499	     -7.99245466	     29.33123777	     29.33123777	     16.34906541	     -9.16412425	     -0.59736318	     26.97942183	    -12.68988545	      2.19598718	     67.87410897	     67.87410897	     12.54429048	    -19.30177675	     18.82124866	    -10.34610403	      6.55255528	      0.63572970	     13.57582377	    -16.99912606	    -15.26189372	     42.83962329	     45.83640001	      0.00000000	      0.00000000	     13.86672124	     -8.74561587	     -5.30807033	     35.97167631	     46.06402104	      0.00000000	      0.00000000
     17.99764286	     -3.16132710	     -4.42869700	      1.66659441	      1.02227592	      0.91377823	      0.54039649	     16.98218659	      4.86547033	     -8.03696473	     30.45387084	     30.45387084	     17.19705613	    -10.14419304	     -0.15045550	     28.45453748	    -12.90555487	      2.40131038	     68.40978382	     68.40978382	     13.60442528	    -19.40164344	     20.30624778	    -10.61345404	      6.35862267	      0.69911320	     15.34722827	    -16.99100580	    -15.16379114	     45.07365454	     45.75822386	      0.00000000	      0.00000000	     12.06238502	     -8.51800856	     -4.32502727	     33.03612282	     45.95771275	      0.00000000	      0.00000000
     18.01685714	     -2.91724465	     -4.42079551	      2.33464971	      1.02084866	      0.91190775	      0.54156523	     16.88465933	      4.94550772	     -8.13093549	     31.37797862	     31.37797862	     17.84244825	    -11.10009294	     -0.22489215	     29.85265169	    -13.08479203	      2.56259992	     68.47721084	     68.47721084	     14.16241474	    -19.47088930	     20.56544547	    -10.84610713	      6.16184675	      0.50528749	     17.53412966	    -16.79225942	    -15.23579352	     46.69598127	     45.71364962	      0.00000000	      0.00000000	      9.80968304	     -8.37339368	     -3.99541251	     31.24823249	     45.88644798	      0.00000000	      0.00000000
     18.03607143	     -2.68491568	     -4.41974168	      3.00917375	      1.01936652	      0.91039402	      0.54242391	     16.65592261	      5.04332791	     -8.23167529	     32.00956132	     32.00956132	     18.41433126	    -11.96793551	     -0.11828874	     31.12788296	    -13.16418441	      2.74349090	     68.06497584	     68.06497584	     14.72780249	    -19.52321468	     21.16350313	    -11.07306906	      5.99060949	      0.34959896	     19.69534304	    -16.63554576	    -15.22929927	     48.43284732	     45.66156566	      0.00000000	      0.00000000	      7.72259084	     -8.25733854	     -3.55639461	     29.29861280	     45.80028018	      0.00000000	      0.00000000
     18.05528571	     -2.51063025	     -4.40770152	      3.68718720	      1.01777144	      0.90918855	      0.54291661	     16.37622116	      5.10189527	     -8.39657697	     32.41806201	     32.41806201	     18.96007317	    -12.65808166	      0.04677892	     32.30818377	    -13.14200836	      2.89728613	     67.13700842	     67.13700842	     15.17358859	    -19.54573836	     21.76408555	    -11.24724723	      5.83467931	      0.37629306	     21.74066710	    -16.64973219	    -15.18027131	     50.17455053	     45.60768281	      0.00000000	      0.00000000	      5.80810261	     -8.11002149	     -3.05908395	     27.52354694	     45.70301486	      0.00000000	      0.00000000
     18.07450000	     -2.41924939	     -4.38398563	      4.36422167	      1.01609804	      0.90839090	      0.54303736	     16.04461760	      5.11672733	     -8.63702063	     32.55407102	     32.55407102	     19.43314515	    -13.14665010	      0.24707978	     33.36844385	    -13.00040450	      3.01827539	     65.64468764	     65.64468764	     15.44928371	    -19.55522550	     22.15298973	    -11.34863063	      5.67275272	      0.57253108	     23.67894299	    -16.83231805	    -15.10241353	     51.93631336	     45.55253314	      0.00000000	      0.00000000	      3.99071410	     -7.96076797	     -2.52243453	     26.06752652	     45.59424951	      0.00000000	      0.00000000
     18.09371429	     -2.37914154	     -4.33534583	      5.05229843	      1.01427017	      0.90809287	      0.54272493	     15.64262082	      5.07628126	     -8.90260067	     32.43207012	     32.43207012	     19.77791293	    -13.49644688	      0.43361094	     34.25324098	    -12.72478736	      3.10226256	     63.57053765	     63.57053765	     15.48970734	    -19.55129141	     22.31051111	    -11.42087274	      5.51809997	      0.68246479	     25.62971503	    -16.99916687	    -15.02301006	     53.77891821	     45.49490663	      0.00000000	      0.00000000	      2.15240453	     -7.87411513	     -2.03442288	     24.91811820	     45.48478093	      0.00000000	      0.00000000
     18.11292857	     -2.43167676	     -4.28053064	      5.74768515	      1.01238427	      0.90823124	      0.54202047	     15.19772726	      4.98901315	     -9.26402104	     32.04010893	     32.04010893	     20.02924105	    -13.65887093	      0.61115193	     34.99012453	    -12.30988576	      3.18623224	     60.95792807	     60.95792807	     15.31790672	    -19.53095151	     22.21649731	    -11.38998847	      5.36610132	      0.86525216	     27.50127365	    -17.28434110	    -14.88012075	     55.71850760	     45.43216478	      0.00000000	      0.00000000	      0.34035414	     -7.81388495	     -1.50506862	     24.11445154	     45.36092357	      0.00000000	      0.00000000
     18.13214286	     -2.57778409	     -4.19412006	      6.41517248	      1.01041438	      0.90884562	      0.54094009	     14.71192111	      4.83079288	     -9.69102105	     31.38463788	     31.38463788	     20.16049917	    -13.64849254	      0.75501193	     35.53167651	    -11.74121290	      3.25322326	     57.80494169	     57.80494169	     14.92853675	    -19.48675513	     21.85575906	    -11.31029568	      5.20995351	      1.08402578	     29.35537588	    -17.67711328	    -14.68642230	     57.71993353	     45.36644754	      0.00000000	      0.00000000	     -1.44817121	     -7.77413967	     -0.95976488	     23.64972274	     45.22737326	      0.00000000	      0.00000000
     18.15135714	     -2.83556955	     -4.11427139	      7.06550155	      1.00839810	      0.90967410	      0.53955665	     14.26618811	      4.63082763	    -10.20745522	     30.57675044	     30.57675044	     20.14192091	    -13.46883749	      0.67556425	     35.86811469	    -11.09388230	      3.31926830	     54.10594767	     54.10594767	     13.69618829	    -19.41830902	     19.45176806	    -11.13334263	      5.04570545	      1.54032376	     30.61734987	    -18.62155150	    -13.72950658	     61.08823755	     45.23573721	      0.00000000	      0.00000000	     -3.56485728	     -8.03468758	      1.23708582	     24.66134157	     44.77687527	      0.00000000	      0.00000000
     18.17057143	     -3.10527181	     -4.02232949	      7.69792191	      1.00641780	      0.91097505	      0.53788737	     13.65366005	      4.42124257	    -10.74576413	     29.43491920	     29.43491920	     19.88642374	    -13.23813144	      0.21908459	     35.93323420	    -10.30517883	      3.51478434	     50.03029477	     50.03029477	     12.55309789	    -19.28737103	     17.89951222	    -10.92009014	      4.88120282	      1.97816132	     32.37158582	    -19.25881122	    -13.71548155	     63.07533447	     45.27833494	      0.00000000	      0.00000000	     -5.83342564	     -9.30619479	     10.13504906	     26.38542041	     43.56812033	      0.00000000	      0.00000000
     18.18978571	     -3.43514150	     -3.90476416	      8.27326191	      1.00451691	      0.91240080	      0.53592800	     13.04002950	      4.14270299	    -11.36981089	     28.22012044	     28.22012044	     19.72642578	    -12.66755012	      0.06892401	     35.75034956	     -9.42630834	      3.79538214	     45.62776800	     45.62776800	     11.04943377	    -19.06441717	     15.65504539	    -10.69024497	      4.66566002	      2.18920932	     34.17948994	    -19.84513813	    -13.22863152	     65.36727992	     45.21029239	      0.00000000	      0.00000000	     -7.62812024	     -9.33916445	     10.36599471	     26.97985822	     43.62314542	      0.00000000	      0.00000000
     18.20900000	     -3.83953152	     -3.78264465	      8.77822165	      1.00267885	      0.91388432	      0.53378158	     12.44619006	      3.89831844	    -11.82708193	     26.89580072	     26.89580072	     19.56361696	    -12.23058207	      0.23117162	     35.48591329	     -8.46222811	      4.31451585	     41.26091085	     41.26091085	     10.27704268	    -18.54932023	     15.76464515	    -10.34816144	      4.40390329	      2.49709446	     36.19209956	    -20.28775287	    -13.22342662	     66.66086639	     45.17887610	      0.00000000	      0.00000000	     -8.98704478	     -9.22532103	     10.48283192	     26.75965192	     43.59872072	      0.00000000	      0.00000000
     18.22821429	     -4.17554671	     -3.70984159	      9.22248390	      1.00112888	      0.91536269	      0.53162921	     11.71346428	      3.70373992	    -12.43279867	     25.48091606	     25.48091606	     19.41924928	    -11.47126530	      0.24848639	     34.94389548	     -7.71789116	      4.71000486	     36.87818852	     36.87818852	      9.45026013	    -17.39532125	     15.26166317	    -10.08747747	      4.18338611	      2.63726001	     38.24872825	    -20.58058812	    -12.99044827	     68.33970638	     45.12711920	      0.00000000	      0.00000000	    -10.42165481	     -9.11338427	     10.61793985	     26.81091029	     43.56928315	      0.00000000	      0.00000000
